<?xml version="1.0" encoding="UTF-8" standalone="no"?>
<!DOCTYPE svg  PUBLIC '-//W3C//DTD SVG 1.1//EN'  'http://www.w3.org/Graphics/SVG/1.1/DTD/svg11.dtd'>
<svg xmlns="http://www.w3.org/2000/svg">
<defs>
<font id="SansaPro-Light" horiz-adv-x="625">
<font-face underline-position="-113" font-weight="300" descent="-200" panose-1="2 0 6 3 8 0 0 2 0 4" units-per-em="1000" unicode-range="U+0020-25CA" bbox="-55 -188 1269 1031" x-height="547" underline-thickness="21" font-family="SansaPro" ascent="800" cap-height="750"/>
<missing-glyph horiz-adv-x="1000"/>
<glyph glyph-name=".notdef" horiz-adv-x="1000"/>
<glyph glyph-name=".null" horiz-adv-x="0"/>
<glyph glyph-name="nonmarkingreturn" horiz-adv-x="333"/>
<glyph glyph-name="space" horiz-adv-x="266" unicode=" "/>
<glyph glyph-name="exclam" horiz-adv-x="273" unicode="!" d="M109 0v94h55v-94h-55zM121 219l-12 531h59l-12 -531h-35z"/>
<glyph glyph-name="quotedbl" horiz-adv-x="445" unicode='&quot;' d="M102 547l-8 203h54l-7 -203h-39zM273 547l-7 203h54l-7 -203h-40z"/>
<glyph glyph-name="numbersign" d="M215 230h195v290h-195v-290zM176 0v191h-145v39h145v290h-145v39h145v191h39v-191h195v191h39v-191h145v-39h-145v-290h145v-39h-145v-191h-39v191h-195v-191h-39z" unicode="#"/>
<glyph glyph-name="dollar" d="M309 757v110h50v-109q92 -4 157 -28v-46h-8q-86 27 -160 27h-16q-83 0 -131.5 -36.5t-48.5 -111.5q0 -101 106 -129l109 -32q82 -23 125 -70t43 -133q0 -96 -60 -150.5t-159 -56.5v-117h-50v117q-99 4 -176 31v51h8q31 -12 87 -23.5t92 -11.5h36q77 0 124 42.5t47 117.5 q0 116 -109 149l-109 31q-83 23 -123.5 64.5t-40.5 119.5q0 90 56.5 139t150.5 55z" unicode="$"/>
<glyph glyph-name="percent" horiz-adv-x="937" unicode="%" d="M266 0v12l375 738h31v-12l-375 -738h-31zM243 360q58 0 87.5 42t29.5 135t-29.5 135t-87.5 42q-59 0 -89 -42t-30 -135q0 -177 119 -177zM695 36q59 0 88 41.5t29 135.5t-29 135.5t-88 41.5t-89 -42t-30 -135q0 -177 119 -177zM695 -4q-167 0 -167 217q0 218 167 218 q82 0 124 -56t42 -162q0 -217 -166 -217zM243 320q-167 0 -167 217q0 218 167 218q166 0 166 -218q0 -217 -166 -217z"/>
<glyph glyph-name="ampersand" horiz-adv-x="656" unicode="&amp;" d="M324 39q86 0 145 24v312h-172q-66 0 -109 -47.5t-43 -116.5q0 -80 49.5 -126t129.5 -46zM324 -8q-106 0 -168 60.5t-62 158.5q0 58 30 107.5t83 76.5q-41 20 -65.5 64.5t-24.5 95.5q0 86 66.5 144.5t156.5 58.5h8q96 0 160 -31v-47h-8q-64 31 -152 31h-8 q-69 0 -120.5 -42t-51.5 -114q0 -52 32 -92.5t77 -40.5h332v-47h-89v-344q-96 -39 -196 -39z"/>
<glyph glyph-name="quotesingle" horiz-adv-x="242" unicode="&apos;" d="M102 547l-8 203h54l-7 -203h-39z"/>
<glyph glyph-name="parenleft" horiz-adv-x="297" unicode="(" d="M227 -125q-85 61 -132.5 172t-47.5 250v31q0 139 47.5 250t132.5 172h23v-16q-156 -136 -156 -406v-31q0 -270 156 -406v-16h-23z"/>
<glyph glyph-name="parenright" horiz-adv-x="297" unicode=")" d="M70 -125h-23v16q156 136 156 406v31q0 270 -156 406v16h23q85 -61 132.5 -172t47.5 -250v-31q0 -139 -47.5 -250t-132.5 -172z"/>
<glyph glyph-name="asterisk" horiz-adv-x="500" unicode="*" d="M227 502l-145 -83l-23 41l144 83l-144 83l23 41l145 -83v166h46v-166l145 83l23 -41l-144 -83l144 -83l-23 -41l-145 83v-166h-46v166z"/>
<glyph glyph-name="plus" d="M293 148v200h-199v39h199v199h39v-199h199v-39h-199v-200h-39z" unicode="+"/>
<glyph glyph-name="comma" horiz-adv-x="273" unicode="," d="M51 -125l58 219h55v-47l-82 -172h-31z"/>
<glyph glyph-name="hyphen" horiz-adv-x="406" unicode="-" d="M62 348v39h282v-39h-282z"/>
<glyph glyph-name="hyphen" horiz-adv-x="406" unicode="­" d="M62 348v39h282v-39h-282z"/>
<glyph glyph-name="period" horiz-adv-x="273" unicode="." d="M109 0v94h55v-94h-55z"/>
<glyph glyph-name="slash" horiz-adv-x="461" unicode="/" d="M31 -125v16l364 859h35v-16l-364 -859h-35z"/>
<glyph glyph-name="zero" d="M313 39q97 0 146 79t49 257t-49 257t-146 79t-146.5 -79t-49.5 -257q0 -336 196 -336zM313 -8q-247 0 -247 383t247 383q122 0 184 -97t62 -286q0 -383 -246 -383z" unicode="0"/>
<glyph glyph-name="one" d="M328 0v691l-203 -89h-8v46l235 102h27v-750h-51z" unicode="1"/>
<glyph glyph-name="two" d="M94 0v78q0 176 172 258l74 35q144 68 144 180q0 45 -14.5 76t-41.5 47t-57.5 22.5t-69.5 6.5h-176v47h176q116 0 175 -51t59 -148q0 -135 -191 -227l-74 -35q-129 -61 -129 -211v-31h398v-47h-445z" unicode="2"/>
<glyph glyph-name="three" d="M94 0v47h195q95 0 149 47t54 136q0 157 -183 157h-125v47h183q102 59 102 144q0 125 -168 125h-188v47h188q105 0 162 -44.5t57 -127.5q0 -100 -106 -160q129 -45 129 -188q0 -103 -69 -166.5t-185 -63.5h-195z" unicode="3"/>
<glyph glyph-name="four" d="M418 0v195h-367v39q165 226 199 516h51q-43 -294 -192 -508h309v250h51v-250h97v-47h-97v-195h-51z" unicode="4"/>
<glyph glyph-name="five" d="M98 0v47h175q101 0 152.5 51.5t51.5 147.5q0 168 -200 168h-164v336h395v-47h-344v-242h113q126 0 188 -58t62 -157q0 -46 -14.5 -88t-43 -78.5t-79.5 -58t-117 -21.5h-175z" unicode="5"/>
<glyph glyph-name="six" d="M313 39q82 0 130.5 46.5t48.5 148.5q0 180 -168 180q-89 0 -179 -63v-124q0 -188 168 -188zM313 -8q-219 0 -219 238v243q0 54 18 102.5t52.5 88t93 63t133.5 23.5h109v-47h-117q-116 0 -177 -64.5t-61 -185.5v-56q91 64 179 64q106 0 162.5 -58t56.5 -169 q0 -64 -22.5 -117t-76 -89t-131.5 -36z" unicode="6"/>
<glyph glyph-name="seven" d="M234 0v47q0 127 46 262.5t101.5 227t118.5 166.5h-437v47h500v-34q-278 -327 -278 -650v-66h-51z" unicode="7"/>
<glyph glyph-name="eight" d="M301 39h15q172 0 172 160q0 93 -101 137l-109 48l-48 -32q-23 -15 -33.5 -23.5t-28.5 -28t-26.5 -44.5t-8.5 -57q0 -160 168 -160zM345 404l34 26q50 37 72 67t22 81q0 133 -149 133h-11q-157 0 -157 -137q0 -88 94 -129zM293 -8q-97 0 -154 50.5t-57 156.5 q0 105 102 168l53 34l-3 1q-129 55 -129 172q0 94 59.5 139t140.5 45h27q82 0 136.5 -43.5t54.5 -136.5q0 -42 -12.5 -72.5t-30.5 -48t-54 -43.5l-40 -28l16 -7q66 -28 101.5 -69.5t35.5 -110.5q0 -98 -61.5 -152.5t-153.5 -54.5h-31z" unicode="8"/>
<glyph glyph-name="nine" d="M305 344q94 0 175 52v131q0 184 -167 184q-81 0 -126.5 -42.5t-45.5 -145.5q0 -179 164 -179zM133 0v47h113q234 0 234 230v73q-88 -53 -175 -53q-105 0 -160 59t-55 167q0 102 56 168.5t167 66.5q108 0 163 -60t55 -175v-246q0 -55 -15.5 -103t-47 -88t-87.5 -63 t-131 -23h-117z" unicode="9"/>
<glyph glyph-name="colon" horiz-adv-x="273" unicode=":" d="M109 0v94h55v-94h-55zM109 453v94h55v-94h-55z"/>
<glyph glyph-name="semicolon" horiz-adv-x="273" unicode=";" d="M51 -125l58 219h55v-47l-82 -172h-31zM109 453v94h55v-94h-55z"/>
<glyph glyph-name="less" d="M523 125l-429 223v39l429 222h8v-43l-383 -199l383 -199v-43h-8z" unicode="&lt;"/>
<glyph glyph-name="equal" d="M94 238v39h437v-39h-437zM94 457v39h437v-39h-437z" unicode="="/>
<glyph glyph-name="greater" d="M94 125v43l383 199l-383 199v43h8l429 -222v-39l-429 -223h-8z" unicode="&gt;"/>
<glyph glyph-name="question" horiz-adv-x="434" unicode="?" d="M141 0v94h54v-94h-54zM145 188v93l105 125q86 103 86 172q0 129 -137 129h-136v43h121q103 0 151 -43t48 -129q0 -84 -86 -183l-106 -122v-85h-46z"/>
<glyph glyph-name="at" horiz-adv-x="930" unicode="@" d="M457 199h102v274h-90q-53 0 -87 -40.5t-34 -104.5q0 -59 28.5 -94t80.5 -35zM477 -102q-82 0 -154 25t-131.5 75t-94 135t-34.5 195q0 105 35 188.5t94 135.5t134 79t158 27q174 0 278.5 -95t104.5 -265q0 -106 -65 -174t-169 -68h-172q-72 0 -118 46t-46 126 q0 85 53 136.5t127 51.5h132v-317h24q80 0 131.5 49t51.5 150q0 148 -87.5 232.5t-244.5 84.5q-156 0 -263.5 -101.5t-107.5 -285.5q0 -177 100 -282t260 -105q97 0 179 24h8v-43q-70 -24 -183 -24z"/>
<glyph glyph-name="A" d="M172 320q-6 -20 -16 -54h313q0 1 -6.5 21.5t-9.5 32.5q-52 178 -140 383q-86 -197 -141 -383zM31 0v8q27 112 86 312q32 110 84.5 244.5t79.5 185.5h63q27 -51 79.5 -185.5t84.5 -244.5q63 -214 86 -312v-8h-55q-34 142 -57 219h-340q-35 -128 -56 -219h-55z" unicode="A"/>
<glyph glyph-name="B" horiz-adv-x="609" unicode="B" d="M145 47h207q73 0 104.5 40t31.5 120q0 62 -35.5 107t-97.5 45h-210v-312zM145 406h210q58 0 88 47t30 110q0 140 -125 140h-203v-297zM94 0v750h246q90 0 136.5 -48t46.5 -139q0 -63 -22.5 -105t-74.5 -71q59 -26 86 -69.5t27 -110.5q0 -98 -50 -152.5t-145 -54.5h-250z "/>
<glyph glyph-name="C" horiz-adv-x="609" unicode="C" d="M359 -8q-152 0 -228 88.5t-76 247.5v94q0 157 83.5 246.5t236.5 89.5q51 0 102 -10t78 -25v-168h-47v136q-52 20 -133 20q-136 0 -203 -74.5t-67 -214.5v-94q0 -289 254 -289h32q72 0 148 31h8v-43q-76 -35 -156 -35h-32z"/>
<glyph glyph-name="D" horiz-adv-x="680" unicode="D" d="M145 47h183q238 0 238 281v110q0 133 -61.5 199t-191.5 66h-168v-656zM94 0v750h211q158 0 235 -77t77 -235v-110q0 -153 -75.5 -240.5t-221.5 -87.5h-226z"/>
<glyph glyph-name="E" horiz-adv-x="555" unicode="E" d="M270 0q-176 0 -176 172v578h398v-47h-347v-281h316v-47h-316v-207q0 -121 121 -121h226v-47h-222z"/>
<glyph glyph-name="F" horiz-adv-x="523" unicode="F" d="M94 0v578q0 172 176 172h207v-47h-211q-121 0 -121 -121v-160h316v-47h-316v-375h-51z"/>
<glyph glyph-name="G" horiz-adv-x="660" unicode="G" d="M375 0q-154 0 -237 86t-83 242v94q0 153 88.5 244.5t239.5 91.5q117 0 199 -35v-43h-8q-97 31 -191 31q-131 0 -204.5 -76.5t-73.5 -212.5v-94q0 -133 69.5 -207t200.5 -74h31q69 0 125 23v278h-172v47h223v-356q-30 -14 -82.5 -26.5t-93.5 -12.5h-31z"/>
<glyph glyph-name="H" horiz-adv-x="687" unicode="H" d="M94 0v750h51v-328h398v328h51v-750h-51v375h-398v-375h-51z"/>
<glyph glyph-name="I" horiz-adv-x="238" unicode="I" d="M94 0v750h51v-750h-51z"/>
<glyph glyph-name="J" horiz-adv-x="426" unicode="J" d="M47 0v47h98q70 0 103 45t33 123v488h-203v47h254v-531q0 -100 -48.5 -159.5t-142.5 -59.5h-94z"/>
<glyph glyph-name="K" horiz-adv-x="562" unicode="K" d="M94 0v750h51v-336h46l297 336h51v-8l-309 -347l317 -387v-8h-59l-300 367h-43v-367h-51z"/>
<glyph glyph-name="L" horiz-adv-x="492" unicode="L" d="M270 0q-176 0 -176 172v578h51v-582q0 -121 121 -121h211v-47h-207z"/>
<glyph glyph-name="M" horiz-adv-x="789" unicode="M" d="M94 0v750h35l266 -383l265 383h35v-750h-50v645l-243 -348h-15l-242 348v-645h-51z"/>
<glyph glyph-name="N" horiz-adv-x="668" unicode="N" d="M94 0v750h39l410 -641v641h51v-750h-39l-410 641v-641h-51z"/>
<glyph glyph-name="O" horiz-adv-x="687" unicode="O" d="M344 39q238 0 238 320v32q0 320 -238 320q-239 0 -239 -320v-32q0 -320 239 -320zM344 -8q-100 0 -166.5 49.5t-94.5 129.5t-28 188v32q0 108 28 188t94.5 129.5t166.5 49.5t166.5 -49.5t94.5 -129.5t28 -188v-32q0 -108 -28 -188t-94.5 -129.5t-166.5 -49.5z"/>
<glyph glyph-name="P" horiz-adv-x="578" unicode="P" d="M145 320h168q167 0 167 200q0 183 -156 183h-179v-383zM94 0v750h215q222 0 222 -230q0 -114 -58.5 -180.5t-167.5 -66.5h-160v-273h-51z"/>
<glyph glyph-name="Q" horiz-adv-x="687" unicode="Q" d="M344 39q238 0 238 320v32q0 320 -238 320q-239 0 -239 -320v-32q0 -320 239 -320zM453 -188q-133 0 -133 125v56q-136 9 -200.5 108t-64.5 258v32q0 108 28 188t94.5 129.5t166.5 49.5t166.5 -49.5t94.5 -129.5t28 -188v-32q0 -76 -15 -139t-45.5 -113t-82 -79.5 t-119.5 -34.5v-56q0 -78 82 -78q52 0 102 20h8v-47q-53 -20 -110 -20z"/>
<glyph glyph-name="R" horiz-adv-x="609" unicode="R" d="M145 359h171q75 0 119.5 49.5t44.5 126.5q0 86 -32.5 127t-111.5 41h-191v-344zM94 0v750h234q107 0 155 -52.5t48 -162.5q0 -73 -38.5 -128t-105.5 -75q50 -47 102 -152t73 -172v-8h-54q-14 57 -69 163t-103 149h-191v-312h-51z"/>
<glyph glyph-name="S" horiz-adv-x="551" unicode="S" d="M238 -8q-99 0 -187 31v51h8q31 -12 87 -23.5t92 -11.5h35q78 0 125 42.5t47 117.5q0 116 -109 149l-109 31q-83 23 -123.5 64.5t-40.5 119.5q0 95 64.5 145t169.5 50h12q93 0 168 -28v-46h-8q-86 27 -160 27h-16q-83 0 -131.5 -36.5t-48.5 -111.5q0 -101 106 -129 l109 -32q82 -23 125 -70t43 -133q0 -98 -62.5 -152.5t-163.5 -54.5h-32z"/>
<glyph glyph-name="T" horiz-adv-x="566" unicode="T" d="M266 0v703h-250v47h535v-47h-235v-703h-50z"/>
<glyph glyph-name="U" horiz-adv-x="672" unicode="U" d="M336 -8q-131 0 -190.5 62.5t-59.5 195.5v500h51v-516q0 -96 51 -145.5t148 -49.5t148 49.5t51 145.5v516h51v-500q0 -130 -61 -194t-189 -64z"/>
<glyph glyph-name="V" horiz-adv-x="594" unicode="V" d="M266 0q-76 126 -141.5 339.5t-93.5 402.5v8h51q39 -218 87.5 -380t127.5 -323q147 300 215 703h50v-8q-28 -185 -96 -401t-142 -341h-58z"/>
<glyph glyph-name="W" horiz-adv-x="875" unicode="W" d="M219 0q-62 149 -115 353t-73 389v8h51q64 -443 168 -703q124 304 164 703h47q50 -433 160 -703q110 276 172 703h51v-8q-27 -196 -79 -399.5t-113 -342.5h-62q-89 189 -152 539q-66 -359 -157 -539h-62z"/>
<glyph glyph-name="X" horiz-adv-x="562" unicode="X" d="M20 0v8l235 373l-232 361v8h55l207 -322l203 322h55v-8l-228 -361l240 -373v-8h-55l-215 334l-211 -334h-54z"/>
<glyph glyph-name="Y" horiz-adv-x="562" unicode="Y" d="M258 0v309l-235 433v8h51l211 -387l207 387h51v-8l-234 -433v-309h-51z"/>
<glyph glyph-name="Z" horiz-adv-x="574" unicode="Z" d="M47 0v39q95 127 226 337.5t176 326.5h-390v47h449v-39q-61 -150 -183 -345t-212 -319h414v-47h-480z"/>
<glyph glyph-name="bracketleft" horiz-adv-x="289" unicode="[" d="M94 -125v875h148v-43h-101v-789h101v-43h-148z"/>
<glyph glyph-name="backslash" horiz-adv-x="461" unicode="\" d="M430 -125h-35l-364 859v16h35l364 -859v-16z"/>
<glyph glyph-name="bracketright" horiz-adv-x="289" unicode="]" d="M195 -125h-148v43h101v789h-101v43h148v-875z"/>
<glyph glyph-name="asciicircum" d="M70 109v8l223 430h39l223 -430v-8h-43l-199 383l-200 -383h-43z" unicode="^"/>
<glyph glyph-name="underscore" d="M31 -39v39h563v-39h-563z" unicode="_"/>
<glyph glyph-name="grave" horiz-adv-x="160" unicode="`" d="M137 625l-137 141v15h62l98 -140v-16h-23z"/>
<glyph glyph-name="a" horiz-adv-x="551" unicode="a" d="M355 121l55 55v328h-90q-99 0 -157 -55.5t-58 -151.5v-137q0 -56 26 -90.5t76 -34.5q40 0 74 22.5t74 63.5zM199 -8q-68 0 -104 47t-36 121v133q0 116 73.5 185t191.5 69h133v-547h-47v121l-35 -35q-30 -30 -48 -45.5t-54 -32t-74 -16.5z"/>
<glyph glyph-name="b" horiz-adv-x="551" unicode="b" d="M195 426l-54 -55v-328h89q100 0 157.5 55t57.5 152v137q0 56 -25.5 90.5t-75.5 34.5q-40 0 -74 -22.5t-75 -63.5zM94 0v750h47v-324l35 35q30 30 48 45.5t54 32t74 16.5q67 0 103.5 -47.5t36.5 -120.5v-133q0 -116 -73.5 -185t-191.5 -69h-133z"/>
<glyph glyph-name="c" horiz-adv-x="469" unicode="c" d="M262 -8q-97 0 -150 53t-53 150v149q0 97 57 154t154 57q95 0 148 -35v-114h-47v86q-45 20 -101 20q-79 0 -122 -44.5t-43 -123.5v-149q0 -76 40.5 -118t116.5 -42q37 0 80 12t68 27h8v-39q-23 -17 -69.5 -30t-86.5 -13z"/>
<glyph glyph-name="d" horiz-adv-x="551" unicode="d" d="M355 121l55 55v328h-90q-99 0 -157 -55.5t-58 -151.5v-137q0 -56 26 -90.5t76 -34.5q40 0 74 22.5t74 63.5zM199 -8q-68 0 -104 47t-36 121v133q0 116 73.5 185t191.5 69h86v203h47v-750h-47v121l-35 -35q-30 -30 -48 -45.5t-54 -32t-74 -16.5z"/>
<glyph glyph-name="e" horiz-adv-x="500" unicode="e" d="M105 344v-43h180q117 0 117 101q0 54 -36.5 82t-95.5 28q-79 0 -122 -44.5t-43 -123.5zM262 -8q-97 0 -150 53t-53 150v149q0 96 58.5 153.5t152.5 57.5q79 0 129 -39.5t50 -113.5q0 -70 -46 -107t-122 -37h-176v-63q0 -76 40.5 -118t116.5 -42q68 0 148 39h8v-39 q-65 -43 -156 -43z"/>
<glyph glyph-name="f" horiz-adv-x="336" unicode="f" d="M133 0v504h-102v43h102v39q0 79 42.5 121.5t121.5 42.5h55v-43h-55q-61 0 -89 -29.5t-28 -91.5v-39h156v-43h-156v-504h-47z"/>
<glyph glyph-name="g" horiz-adv-x="551" unicode="g" d="M391 125l19 12v367h-90q-98 0 -156.5 -54.5t-58.5 -152.5v-78q0 -145 129 -145q72 0 157 51zM90 -188v43h113q104 0 155.5 57.5t51.5 165.5v16l-19 -12q-86 -51 -161 -51q-83 0 -127 50.5t-44 137.5v74q0 119 75 186.5t190 67.5h133v-465q0 -131 -65 -200.5t-193 -69.5 h-109z"/>
<glyph glyph-name="h" horiz-adv-x="578" unicode="h" d="M438 0v391q0 56 -24 88.5t-74 32.5q-27 0 -60 -19t-51 -35.5t-49 -47.5l-39 -39v-371h-47v750h47v-324l39 39q90 90 164 90q140 0 140 -164v-391h-46z"/>
<glyph glyph-name="i" horiz-adv-x="258" unicode="i" d="M117 0v504h-101v43h148v-547h-47zM164 672h-47v78h47v-78z"/>
<glyph glyph-name="j" horiz-adv-x="266" unicode="j" d="M-55 -188v43h24q84 0 120 49.5t36 142.5v457h-102v43h149v-484q0 -122 -47 -186.5t-156 -64.5h-24zM172 672h-47v78h47v-78z"/>
<glyph glyph-name="k" horiz-adv-x="473" unicode="k" d="M94 0v750h47v-430h62l188 227h47v-8l-200 -238l211 -293v-8h-51l-199 277h-58v-277h-47z"/>
<glyph glyph-name="l" horiz-adv-x="242" unicode="l" d="M102 0v707h-102v43h148v-750h-46z"/>
<glyph glyph-name="m" horiz-adv-x="922" unicode="m" d="M94 0v547h47v-121l39 39q90 90 164 90q125 0 138 -129h2l39 39q25 24 40.5 37.5t53 33t71.5 19.5q140 0 140 -164v-391h-47v391q0 121 -97 121q-27 0 -60 -19t-52 -36t-49 -47l-39 -39v-371h-46v391q0 56 -24 88.5t-74 32.5q-27 0 -60 -19t-51 -35.5t-49 -47.5l-39 -39 v-371h-47z"/>
<glyph glyph-name="n" horiz-adv-x="578" unicode="n" d="M94 0v547h47v-121l39 39q90 90 164 90q140 0 140 -164v-391h-47v391q0 121 -97 121q-27 0 -60 -19t-51 -35.5t-49 -47.5l-39 -39v-371h-47z"/>
<glyph glyph-name="o" horiz-adv-x="555" unicode="o" d="M277 35q93 0 134.5 66.5t41.5 175.5q0 235 -176 235q-175 0 -175 -235q0 -109 41 -175.5t134 -66.5zM277 -8q-114 0 -168 78t-54 207q0 127 55 202.5t167 75.5q115 0 169 -74.5t54 -203.5q0 -130 -53.5 -207.5t-169.5 -77.5z"/>
<glyph glyph-name="p" horiz-adv-x="551" unicode="p" d="M195 426l-54 -55v-328h89q100 0 157.5 55t57.5 152v137q0 56 -25.5 90.5t-75.5 34.5q-40 0 -74 -22.5t-75 -63.5zM94 -188v735h47v-121l35 35q30 30 48 45.5t54 32t74 16.5q67 0 103.5 -47.5t36.5 -120.5v-133q0 -116 -73.5 -185t-191.5 -69h-86v-188h-47z"/>
<glyph glyph-name="q" horiz-adv-x="551" unicode="q" d="M355 121l55 55v328h-90q-99 0 -157 -55.5t-58 -151.5v-137q0 -56 26 -90.5t76 -34.5q40 0 74 22.5t74 63.5zM410 -188v309l-35 -35q-30 -30 -48 -45.5t-54 -32t-74 -16.5q-68 0 -104 47t-36 121v133q0 116 73.5 185t191.5 69h133v-735h-47z"/>
<glyph glyph-name="r" horiz-adv-x="355" unicode="r" d="M94 0v547h47v-113l43 50q52 63 121 63h35v-47h-35q-56 0 -117 -70l-47 -55v-375h-47z"/>
<glyph glyph-name="s" horiz-adv-x="484" unicode="s" d="M223 -8q-89 0 -153 20v47h8q64 -24 145 -24q69 0 110.5 30t41.5 91q0 41 -21 62.5t-73 35.5l-78 19q-68 18 -100.5 45.5t-32.5 91.5q0 72 58 108.5t142 36.5q67 0 128 -16v-43h-7q-64 16 -121 16q-67 0 -110 -24t-43 -78q0 -39 20.5 -59t65.5 -31l78 -19q65 -17 103 -48 t38 -97q0 -79 -55.5 -121.5t-143.5 -42.5z"/>
<glyph glyph-name="t" horiz-adv-x="383" unicode="t" d="M352 0h-55q-91 0 -127.5 45.5t-36.5 142.5v316h-102v43h102v125h47v-125h156v-43h-156v-332q0 -68 29 -98.5t96 -30.5h47v-43z"/>
<glyph glyph-name="u" horiz-adv-x="574" unicode="u" d="M230 -8q-140 0 -140 164v391h47v-391q0 -121 97 -121q27 0 60 19t52 36t49 47l39 39v371h46v-547h-46v121l-39 -39q-25 -24 -40.5 -37.5t-53 -33t-71.5 -19.5z"/>
<glyph glyph-name="v" horiz-adv-x="484" unicode="v" d="M219 0q-37 37 -70 84t-63.5 132t-30.5 175v156h47v-156q0 -119 43.5 -209t96.5 -143q53 53 97 143t44 209v156h47v-156q0 -69 -17 -134t-46 -114.5t-53.5 -82.5t-51.5 -60h-43z"/>
<glyph glyph-name="w" horiz-adv-x="727" unicode="w" d="M191 0q-51 56 -93.5 160t-42.5 231v156h47v-156q0 -108 38 -209.5t79 -142.5q25 34 48 74.5t48 117.5t25 152v164h47v-164q0 -75 25 -152t48 -117.5t48 -74.5q41 41 79 142.5t38 209.5v156h47v-156q0 -126 -44 -230t-97 -161h-43q-32 32 -71.5 107t-53.5 139 q-13 -63 -53 -138.5t-72 -107.5h-47z"/>
<glyph glyph-name="x" horiz-adv-x="469" unicode="x" d="M23 0v8l185 268l-177 263v8h51l154 -230l159 230h50v-8l-181 -263l181 -268v-8h-50l-159 235l-162 -235h-51z"/>
<glyph glyph-name="y" horiz-adv-x="574" unicode="y" d="M137 -188v43h101q108 0 152 54t44 169v47l-12 -8q-30 -20 -77 -37t-91 -17q-80 0 -122 47.5t-42 131.5v305h47v-305q0 -69 29.5 -103t95.5 -34q39 0 84.5 17.5t75.5 37.5l12 8v379h46v-461q0 -137 -57 -205.5t-185 -68.5h-101z"/>
<glyph glyph-name="z" horiz-adv-x="500" unicode="z" d="M55 0v35q84 105 180 244.5t144 224.5h-309v43h368v-35q-36 -70 -145.5 -228.5t-175.5 -240.5h328v-43h-390z"/>
<glyph glyph-name="braceleft" horiz-adv-x="469" unicode="{" d="M359 -125q-96 0 -133.5 40.5t-37.5 131.5v125q0 110 -157 121v39q82 6 119.5 35.5t37.5 85.5v125q0 91 37.5 131.5t133.5 40.5h32v-43h-63q-51 0 -72.5 -30t-21.5 -91v-125q0 -68 -33 -101.5t-92 -46.5q61 -14 93 -46t32 -103v-125q0 -61 21.5 -91t72.5 -30h63v-43h-32z "/>
<glyph glyph-name="bar" horiz-adv-x="273" unicode="|" d="M117 -188v1001h39v-1001h-39z"/>
<glyph glyph-name="braceright" horiz-adv-x="469" unicode="}" d="M109 -125h-31v43h63q51 0 72 30t21 91v125q0 70 32.5 102.5t92.5 46.5q-59 13 -92 46.5t-33 101.5v125q0 61 -21 91t-72 30h-63v43h31q97 0 134.5 -40.5t37.5 -131.5v-125q0 -56 37.5 -85.5t119.5 -35.5v-39q-157 -11 -157 -121v-125q0 -91 -37.5 -131.5t-134.5 -40.5z "/>
<glyph glyph-name="asciitilde" d="M94 281v35q16 30 47 50.5t70 20.5q37 0 109 -33.5t98 -33.5q39 0 63 16.5t42 50.5h8v-35q-16 -30 -47 -50.5t-70 -20.5q-37 0 -109 33.5t-98 33.5q-63 0 -105 -67h-8z" unicode="~"/>
<glyph glyph-name="exclamdown" horiz-adv-x="273" unicode="¡" d="M168 750v-94h-55v94h55zM156 531l12 -531h-59l12 531h35z"/>
<glyph glyph-name="cent" d="M355 758v109h51v-110q87 -5 145 -27v-46h-8q-86 27 -168 27q-136 0 -203 -74.5t-67 -214.5v-94q0 -289 254 -289h32q72 0 148 31h8v-43q-74 -34 -152 -35v-117h-51v117q-145 5 -217 93t-72 243v94q0 152 78 240.5t222 95.5z" unicode="¢"/>
<glyph glyph-name="sterling" d="M125 47q78 53 78 183v145h-109v47h109v94q0 112 58 173t169 61h117v-47h-117q-98 0 -137 -46.5t-39 -140.5v-94h246v-47h-246v-145q0 -134 -78 -183h371v-47h-484v47h62z" unicode="£"/>
<glyph glyph-name="currency" horiz-adv-x="500" unicode="¤" d="M255 471h-1q-53 0 -85.5 -40.5t-32.5 -100.5q0 -67 36.5 -103t81.5 -36q48 0 83.5 35.5t35.5 106.5q0 56 -31.5 97t-86.5 41zM256 534h1q70 0 115 -40l71 75l45 -46l-79 -71q35 -47 35 -118q0 -76 -35 -122l75 -74l-44 -44l-69 76q-45 -42 -117 -42q-71 0 -114 40 l-67 -74l-43 44l72 70q-37 50 -37 121q0 73 39 123l-76 71l45 46l68 -76q48 41 115 41z"/>
<glyph glyph-name="yen" d="M340 203v-203h-51v203h-226v47h226v59l-234 433v8h50l211 -387l207 387h51v-8l-234 -433v-59h223v-47h-223z" unicode="¥"/>
<glyph glyph-name="brokenbar" horiz-adv-x="273" unicode="¦" d="M117 -188v407h39v-407h-39zM117 406v407h39v-407h-39z"/>
<glyph glyph-name="section" horiz-adv-x="531" unicode="§" d="M74 324l258 -183q55 -39 80.5 -78t25.5 -90q0 -73 -54.5 -117t-129.5 -44h-191v51h195q51 0 90 27t39 83q0 41 -22.5 70.5t-67.5 61.5l-231 165v54h8zM457 238l-258 184q-54 39 -79.5 78t-25.5 90q0 73 54.5 116.5t128.5 43.5h192v-51h-196q-51 0 -89.5 -26.5 t-38.5 -82.5q0 -43 21.5 -71.5t67.5 -61.5l231 -164v-55h-8z"/>
<glyph glyph-name="dieresis" horiz-adv-x="297" unicode="¨" d="M0 625v94h55v-94h-55zM242 625v94h55v-94h-55z"/>
<glyph glyph-name="copyright" horiz-adv-x="844" unicode="©" d="M445 180q-91 0 -147 55t-56 148q0 87 59 145t144 58q57 0 98 -16v-43q-41 16 -98 16q-69 0 -110.5 -44.5t-41.5 -115.5q0 -74 40 -117t112 -43q55 0 98 15v-43q-49 -15 -98 -15zM422 59q144 0 234 92t90 232q0 139 -90 231.5t-234 92.5t-234 -92.5t-90 -231.5 q0 -140 90 -232t234 -92zM422 16q-162 0 -268.5 103.5t-106.5 263.5t106.5 263.5t268.5 103.5t268.5 -103.5t106.5 -263.5t-106.5 -263.5t-268.5 -103.5z"/>
<glyph glyph-name="ordfeminine" horiz-adv-x="474" unicode="ª" d="M178 360q54 0 126 64l46 43v248h-76q-84 0 -132.5 -41.5t-48.5 -114.5v-106q0 -42 21 -67.5t64 -25.5zM171 323q-58 0 -90 36.5t-32 93.5v103q0 89 63.5 142.5t165.5 53.5h115v-423h-43v90q-9 -6 -28 -23q-28 -24 -42 -35t-45.5 -24.5t-63.5 -13.5z"/>
<glyph glyph-name="guillemotleft" horiz-adv-x="586" unicode="«" d="M523 152l-211 160v47l211 161h8v-43l-172 -141l172 -141v-43h-8zM273 152l-211 160v47l211 161h8v-43l-172 -141l172 -141v-43h-8z"/>
<glyph glyph-name="logicalnot" d="M492 168v180h-398v39h437v-219h-39z" unicode="¬"/>
<glyph glyph-name="registered" horiz-adv-x="844" unicode="®" d="M344 367h70q37 0 61.5 24.5t24.5 69.5q0 39 -24.5 60.5t-61.5 21.5h-70v-176zM293 180v406h95q163 0 163 -125q0 -81 -78 -117l90 -156v-8h-55l-78 144h-86v-144h-51zM422 59q144 0 234 92t90 232q0 139 -90 231.5t-234 92.5t-234 -92.5t-90 -231.5q0 -140 90 -232 t234 -92zM422 16q-162 0 -268.5 103.5t-106.5 263.5t106.5 263.5t268.5 103.5t268.5 -103.5t106.5 -263.5t-106.5 -263.5t-268.5 -103.5z"/>
<glyph glyph-name="degree" horiz-adv-x="412" unicode="°" d="M207 360q58 0 87.5 42t29.5 135t-29.5 135t-87.5 42q-59 0 -89 -42t-30 -135q0 -177 119 -177zM207 320q-167 0 -167 217q0 218 167 218q82 0 124 -55.5t42 -162.5q0 -217 -166 -217z"/>
<glyph glyph-name="plusminus" d="M94 -39v39h437v-39h-437zM293 148v200h-199v39h199v199h39v-199h199v-39h-199v-200h-39z" unicode="±"/>
<glyph glyph-name="twosuperior" horiz-adv-x="412" unicode="²" d="M57 324v51q0 100 117 147l48 20q88 35 88 92q0 75 -112 75h-121v41h121q160 0 160 -116q0 -82 -129 -132l-47 -19q-79 -29 -79 -108v-10h257v-41h-303z"/>
<glyph glyph-name="threesuperior" horiz-adv-x="412" unicode="³" d="M57 324v41h133q60 0 92.5 23.5t32.5 69.5q0 78 -111 78h-89v41h125q60 31 60 72q0 60 -102 60h-128v41h128q72 0 111 -26t39 -75q0 -54 -57 -86q72 -29 72 -105q0 -60 -47 -97t-126 -37h-133z"/>
<glyph glyph-name="acute" horiz-adv-x="160" unicode="´" d="M0 625v16l98 140h62v-15l-137 -141h-23z"/>
<glyph glyph-name="mu" horiz-adv-x="574" unicode="µ" d="M508 0h-47q-27 37 -27 121l-39 -39q-25 -24 -40.5 -37.5t-53 -33t-71.5 -19.5q-64 0 -97 47v-227h-43v735h47v-391q0 -121 97 -121q27 0 60 19t52 36t49 47l39 39v371h46v-422q0 -85 28 -125z"/>
<glyph glyph-name="mu" horiz-adv-x="574" unicode="μ" d="M508 0h-47q-27 37 -27 121l-39 -39q-25 -24 -40.5 -37.5t-53 -33t-71.5 -19.5q-64 0 -97 47v-227h-43v735h47v-391q0 -121 97 -121q27 0 60 19t52 36t49 47l39 39v371h46v-422q0 -85 28 -125z"/>
<glyph glyph-name="paragraph" horiz-adv-x="641" unicode="¶" d="M375 -188v376h-62q-123 0 -202.5 73t-79.5 208t79.5 208t202.5 73h113v-938h-51zM512 -188v938h51v-938h-51z"/>
<glyph glyph-name="cedilla" horiz-adv-x="199" unicode="¸" d="M0 -188v40h109q55 0 55 50q0 17 -15.5 35t-35.5 28v12h24q26 -12 44 -35.5t18 -46.5q0 -38 -26 -60.5t-68 -22.5h-105z"/>
<glyph glyph-name="onesuperior" horiz-adv-x="412" unicode="¹" d="M208 324v374l-121 -45h-16v40l158 57h27v-426h-48z"/>
<glyph glyph-name="ordmasculine" horiz-adv-x="477" unicode="º" d="M237 360q149 0 149 184q0 177 -149 177q-148 0 -148 -177q0 -184 148 -184zM237 323q-98 0 -145 60.5t-47 160.5q0 98 48 156t144 58q100 0 146.5 -57.5t46.5 -156.5q0 -101 -46 -161t-147 -60z"/>
<glyph glyph-name="guillemotright" horiz-adv-x="586" unicode="»" d="M62 520l211 -161v-47l-211 -160h-7v43l172 141l-172 141v43h7zM312 520l211 -161v-47l-211 -160h-7v43l172 141l-172 141v43h7z"/>
<glyph glyph-name="onequarter" horiz-adv-x="938" unicode="¼" d="M211 324v374l-121 -45h-16v40l157 57h28v-426h-48zM266 0v12l375 738h31v-12l-375 -738h-31zM766 0v107h-238v32q110 127 130 287h48q-27 -160 -115 -278h175v136h47v-136h64v-41h-64v-107h-47z"/>
<glyph glyph-name="onehalf" horiz-adv-x="938" unicode="½" d="M211 324v374l-121 -45h-16v40l157 57h28v-426h-48zM266 0v12l375 738h31v-12l-375 -738h-31zM545 0v51q0 100 117 147l48 20q88 35 88 92q0 75 -111 75h-122v41h122q160 0 160 -116q0 -82 -129 -132l-48 -19q-79 -29 -79 -108v-10h258v-41h-304z"/>
<glyph glyph-name="threequarters" horiz-adv-x="938" unicode="¾" d="M266 0v12l375 738h31v-12l-375 -738h-31zM766 0v107h-238v32q110 127 130 287h48q-27 -160 -115 -278h175v136h47v-136h64v-41h-64v-107h-47zM48 324v41h134q59 0 92 23.5t33 69.5q0 78 -112 78h-89v41h125q60 31 60 72q0 60 -102 60h-127v41h127q72 0 111 -26t39 -75 q0 -54 -57 -86q72 -29 72 -105q0 -60 -46.5 -97t-125.5 -37h-134z"/>
<glyph glyph-name="questiondown" horiz-adv-x="434" unicode="¿" d="M297 750v-94h-55v94h55zM293 563v-94l-105 -125q-86 -103 -86 -172q0 -129 136 -129h137v-43h-121q-104 0 -151.5 43t-47.5 129q0 85 86 183l105 122v86h47z"/>
<glyph glyph-name="Agrave" d="M369 828l-137 141v15h63l98 -140v-16h-24zM172 320q-6 -20 -16 -54h313q0 1 -6.5 21.5t-9.5 32.5q-52 178 -140 383q-86 -197 -141 -383zM31 0v8q27 112 86 312q32 110 84.5 244.5t79.5 185.5h63q27 -51 79.5 -185.5t84.5 -244.5q63 -214 86 -312v-8h-55q-34 142 -57 219 h-340q-35 -128 -56 -219h-55z" unicode="À"/>
<glyph glyph-name="Aacute" d="M232 828v16l98 140h63v-15l-137 -141h-24zM172 320q-6 -20 -16 -54h313q0 1 -6.5 21.5t-9.5 32.5q-52 178 -140 383q-86 -197 -141 -383zM31 0v8q27 112 86 312q32 110 84.5 244.5t79.5 185.5h63q27 -51 79.5 -185.5t84.5 -244.5q63 -214 86 -312v-8h-55q-34 142 -57 219 h-340q-35 -128 -56 -219h-55z" unicode="Á"/>
<glyph glyph-name="Acircumflex" d="M156 828v16l125 140h63l125 -142v-14h-32l-125 129l-125 -129h-31zM172 320q-6 -20 -16 -54h313q0 1 -6.5 21.5t-9.5 32.5q-52 178 -140 383q-86 -197 -141 -383zM31 0v8q27 112 86 312q32 110 84.5 244.5t79.5 185.5h63q27 -51 79.5 -185.5t84.5 -244.5q63 -214 86 -312 v-8h-55q-34 142 -57 219h-340q-35 -128 -56 -219h-55z" unicode="Â"/>
<glyph glyph-name="Atilde" d="M141 828v39q42 78 97 78q30 0 82 -39t67 -39q17 0 34 12.5t27 25t25 34.5q3 4 4 6h7v-39q-43 -78 -97 -78q-27 0 -80 39t-69 39q-17 0 -34 -12.5t-27 -25t-25 -34.5q-3 -4 -4 -6h-7zM172 320q-6 -20 -16 -54h313q0 1 -6.5 21.5t-9.5 32.5q-52 178 -140 383 q-86 -197 -141 -383zM31 0v8q27 112 86 312q32 110 84.5 244.5t79.5 185.5h63q27 -51 79.5 -185.5t84.5 -244.5q63 -214 86 -312v-8h-55q-34 142 -57 219h-340q-35 -128 -56 -219h-55z" unicode="Ã"/>
<glyph glyph-name="Adieresis" d="M164 828v94h55v-94h-55zM406 828v94h55v-94h-55zM172 320q-6 -20 -16 -54h313q0 1 -6.5 21.5t-9.5 32.5q-52 178 -140 383q-86 -197 -141 -383zM31 0v8q27 112 86 312q32 110 84.5 244.5t79.5 185.5h63q27 -51 79.5 -185.5t84.5 -244.5q63 -214 86 -312v-8h-55 q-34 142 -57 219h-340q-35 -128 -56 -219h-55z" unicode="Ä"/>
<glyph glyph-name="Aring" d="M312 852q40 0 61.5 21t21.5 57t-21.5 57t-61.5 21t-61 -21t-21 -57t21 -57t61 -21zM312 828q-53 0 -83 29.5t-30 72.5t30 72t83 29q54 0 84 -29t30 -72q0 -44 -30 -73t-84 -29zM172 320q-6 -20 -16 -54h313q0 1 -6.5 21.5t-9.5 32.5q-52 178 -140 383q-86 -197 -141 -383 zM31 0v8q27 112 86 312q32 110 84.5 244.5t79.5 185.5h63q27 -51 79.5 -185.5t84.5 -244.5q63 -214 86 -312v-8h-55q-34 142 -57 219h-340q-35 -128 -56 -219h-55z" unicode="Å"/>
<glyph glyph-name="AE" horiz-adv-x="855" unicode="Æ" d="M320 703q-94 -157 -174 -437h249v437h-75zM133 219q-31 -112 -47 -219h-55v8q43 228 116.5 425.5t145.5 316.5h500v-47h-348v-281h317v-47h-317v-207q0 -121 121 -121h227v-47h-223q-175 0 -175 172v47h-262z"/>
<glyph glyph-name="Ccedilla" horiz-adv-x="609" unicode="Ç" d="M213 -188v40h109q55 0 55 50q0 17 -15.5 35t-35.5 28v12h24q26 -12 44 -35.5t18 -46.5q0 -38 -26 -60.5t-68 -22.5h-105zM359 -8q-152 0 -228 88.5t-76 247.5v94q0 157 83.5 246.5t236.5 89.5q51 0 102 -10t78 -25v-168h-47v136q-52 20 -133 20q-136 0 -203 -74.5 t-67 -214.5v-94q0 -289 254 -289h32q72 0 148 31h8v-43q-76 -35 -156 -35h-32z"/>
<glyph glyph-name="Egrave" horiz-adv-x="555" unicode="È" d="M346 828l-137 141v15h62l98 -140v-16h-23zM270 0q-176 0 -176 172v578h398v-47h-347v-281h316v-47h-316v-207q0 -121 121 -121h226v-47h-222z"/>
<glyph glyph-name="Eacute" horiz-adv-x="555" unicode="É" d="M217 828v16l97 140h63v-15l-137 -141h-23zM270 0q-176 0 -176 172v578h398v-47h-347v-281h316v-47h-316v-207q0 -121 121 -121h226v-47h-222z"/>
<glyph glyph-name="Ecircumflex" horiz-adv-x="555" unicode="Ê" d="M133 828v16l125 140h62l125 -142v-14h-31l-125 129l-125 -129h-31zM270 0q-176 0 -176 172v578h398v-47h-347v-281h316v-47h-316v-207q0 -121 121 -121h226v-47h-222z"/>
<glyph glyph-name="Edieresis" horiz-adv-x="555" unicode="Ë" d="M141 828v94h54v-94h-54zM383 828v94h54v-94h-54zM270 0q-176 0 -176 172v578h398v-47h-347v-281h316v-47h-316v-207q0 -121 121 -121h226v-47h-222z"/>
<glyph glyph-name="Igrave" horiz-adv-x="238" unicode="Ì" d="M176 828l-137 141v15h63l97 -140v-16h-23zM94 0v750h51v-750h-51z"/>
<glyph glyph-name="Iacute" horiz-adv-x="238" unicode="Í" d="M39 828v16l98 140h62v-15l-137 -141h-23zM94 0v750h51v-750h-51z"/>
<glyph glyph-name="Icircumflex" horiz-adv-x="238" unicode="Î" d="M-37 828v16l125 140h62l125 -142v-14h-31l-125 129l-125 -129h-31zM94 0v750h51v-750h-51z"/>
<glyph glyph-name="Idieresis" horiz-adv-x="238" unicode="Ï" d="M-29 828v94h54v-94h-54zM213 828v94h55v-94h-55zM94 0v750h51v-750h-51z"/>
<glyph glyph-name="Eth" horiz-adv-x="680" unicode="Ð" d="M145 47h183q238 0 238 281v110q0 133 -61.5 199t-191.5 66h-168v-265h137v-43h-137v-348zM94 0v395h-63v43h63v312h211q158 0 235 -77t77 -235v-110q0 -153 -75.5 -240.5t-221.5 -87.5h-226z"/>
<glyph glyph-name="Ntilde" horiz-adv-x="668" unicode="Ñ" d="M162 828v39q45 78 98 78q29 0 81 -39t67 -39q18 0 36.5 14t28 27t25.5 37h8v-39q-46 -78 -98 -78q-27 0 -79.5 39t-68.5 39q-18 0 -36.5 -14t-28 -27t-25.5 -37h-8zM94 0v750h39l410 -641v641h51v-750h-39l-410 641v-641h-51z"/>
<glyph glyph-name="Ograve" horiz-adv-x="687" unicode="Ò" d="M400 828l-136 141v15h62l98 -140v-16h-24zM344 39q238 0 238 320v32q0 320 -238 320q-239 0 -239 -320v-32q0 -320 239 -320zM344 -8q-100 0 -166.5 49.5t-94.5 129.5t-28 188v32q0 108 28 188t94.5 129.5t166.5 49.5t166.5 -49.5t94.5 -129.5t28 -188v-32 q0 -108 -28 -188t-94.5 -129.5t-166.5 -49.5z"/>
<glyph glyph-name="Oacute" horiz-adv-x="687" unicode="Ó" d="M264 828v16l97 140h63v-15l-137 -141h-23zM344 39q238 0 238 320v32q0 320 -238 320q-239 0 -239 -320v-32q0 -320 239 -320zM344 -8q-100 0 -166.5 49.5t-94.5 129.5t-28 188v32q0 108 28 188t94.5 129.5t166.5 49.5t166.5 -49.5t94.5 -129.5t28 -188v-32 q0 -108 -28 -188t-94.5 -129.5t-166.5 -49.5z"/>
<glyph glyph-name="Ocircumflex" horiz-adv-x="687" unicode="Ô" d="M187 828v16l125 140h63l125 -142v-14h-31l-125 129l-125 -129h-32zM344 39q238 0 238 320v32q0 320 -238 320q-239 0 -239 -320v-32q0 -320 239 -320zM344 -8q-100 0 -166.5 49.5t-94.5 129.5t-28 188v32q0 108 28 188t94.5 129.5t166.5 49.5t166.5 -49.5t94.5 -129.5 t28 -188v-32q0 -108 -28 -188t-94.5 -129.5t-166.5 -49.5z"/>
<glyph glyph-name="Otilde" horiz-adv-x="687" unicode="Õ" d="M172 828v39q16 29 41.5 53.5t56.5 24.5q29 0 81 -39t67 -39q17 0 34 12.5t27 25t25 34.5q3 4 4 6h8v-39q-46 -78 -98 -78q-28 0 -80 39t-68 39q-19 0 -37 -14t-27 -26.5t-26 -37.5h-8zM344 39q238 0 238 320v32q0 320 -238 320q-239 0 -239 -320v-32q0 -320 239 -320z M344 -8q-100 0 -166.5 49.5t-94.5 129.5t-28 188v32q0 108 28 188t94.5 129.5t166.5 49.5t166.5 -49.5t94.5 -129.5t28 -188v-32q0 -108 -28 -188t-94.5 -129.5t-166.5 -49.5z"/>
<glyph glyph-name="Odieresis" horiz-adv-x="687" unicode="Ö" d="M195 828v94h55v-94h-55zM437 828v94h55v-94h-55zM344 39q238 0 238 320v32q0 320 -238 320q-239 0 -239 -320v-32q0 -320 239 -320zM344 -8q-100 0 -166.5 49.5t-94.5 129.5t-28 188v32q0 108 28 188t94.5 129.5t166.5 49.5t166.5 -49.5t94.5 -129.5t28 -188v-32 q0 -108 -28 -188t-94.5 -129.5t-166.5 -49.5z"/>
<glyph glyph-name="multiply" d="M172 198l-28 29l140 140l-140 141l28 28l141 -140l140 140l28 -28l-140 -141l140 -140l-28 -29l-140 141z" unicode="×"/>
<glyph glyph-name="Oslash" horiz-adv-x="687" unicode="Ø" d="M344 39q238 0 238 320v32q0 136 -45 215l-363 -497q59 -70 170 -70zM105 359q0 -137 45 -217l364 498q-61 71 -170 71q-239 0 -239 -320v-32zM55 0v12l65 89q-65 94 -65 258v32q0 108 28 188t94.5 129.5t166.5 49.5q126 0 199 -78l51 70h39v-12l-65 -89q65 -95 65 -258 v-32q0 -108 -28 -188t-94.5 -129.5t-166.5 -49.5q-127 0 -199 77l-51 -69h-39z"/>
<glyph glyph-name="Ugrave" horiz-adv-x="672" unicode="Ù" d="M393 828l-137 141v15h62l98 -140v-16h-23zM336 -8q-131 0 -190.5 62.5t-59.5 195.5v500h51v-516q0 -96 51 -145.5t148 -49.5t148 49.5t51 145.5v516h51v-500q0 -130 -61 -194t-189 -64z"/>
<glyph glyph-name="Uacute" horiz-adv-x="672" unicode="Ú" d="M256 828v16l98 140h62v-15l-137 -141h-23zM336 -8q-131 0 -190.5 62.5t-59.5 195.5v500h51v-516q0 -96 51 -145.5t148 -49.5t148 49.5t51 145.5v516h51v-500q0 -130 -61 -194t-189 -64z"/>
<glyph glyph-name="Ucircumflex" horiz-adv-x="672" unicode="Û" d="M180 828v16l125 140h62l125 -142v-14h-31l-125 129l-125 -129h-31zM336 -8q-131 0 -190.5 62.5t-59.5 195.5v500h51v-516q0 -96 51 -145.5t148 -49.5t148 49.5t51 145.5v516h51v-500q0 -130 -61 -194t-189 -64z"/>
<glyph glyph-name="Udieresis" horiz-adv-x="672" unicode="Ü" d="M187 828v94h55v-94h-55zM430 828v94h54v-94h-54zM336 -8q-131 0 -190.5 62.5t-59.5 195.5v500h51v-516q0 -96 51 -145.5t148 -49.5t148 49.5t51 145.5v516h51v-500q0 -130 -61 -194t-189 -64z"/>
<glyph glyph-name="Yacute" horiz-adv-x="562" unicode="Ý" d="M201 828v16l98 140h62v-15l-136 -141h-24zM258 0v309l-235 433v8h51l211 -387l207 387h51v-8l-234 -433v-309h-51z"/>
<glyph glyph-name="Thorn" horiz-adv-x="578" unicode="Þ" d="M324 586h-179v-383h168q167 0 167 199q0 184 -156 184zM94 0v750h51v-117h164q222 0 222 -231q0 -113 -58.5 -179.5t-167.5 -66.5h-160v-156h-51z"/>
<glyph glyph-name="germandbls" horiz-adv-x="652" unicode="ß" d="M414 -8q-81 0 -141 20v43h9q52 -20 136 -20q59 0 94 29t35 81q0 34 -19.5 55t-62.5 46l-55 31q-2 1 -11.5 6.5t-12 7t-11.5 7.5t-12 9t-10 9.5t-10 11.5t-7.5 13.5t-6.5 16.5t-3.5 18.5t-1.5 21.5q0 19 5 35t17 30t20 22t25.5 21t22.5 17q47 43 47 82q0 52 -37 77t-92 25 q-69 0 -110.5 -30.5t-41.5 -113.5v-563h-47v504h-102v43h102v19q0 89 54 136.5t145 47.5q69 0 122.5 -37t53.5 -96q0 -31 -11 -55t-21 -34.5t-39 -35.5q-3 -3 -18 -14.5t-23.5 -19.5t-16.5 -22.5t-8 -29.5q0 -10 1.5 -18.5t2.5 -14.5t6.5 -12.5t7 -9.5t10 -9.5t10.5 -8 t14 -9t14 -8.5l40 -23q4 -3 22.5 -13t27 -15.5t24 -18.5t23 -25.5t14 -32.5t6.5 -43q0 -65 -46.5 -109t-133.5 -44z"/>
<glyph glyph-name="agrave" horiz-adv-x="551" unicode="à" d="M340 625l-137 141v15h63l97 -140v-16h-23zM355 121l55 55v328h-90q-99 0 -157 -55.5t-58 -151.5v-137q0 -56 26 -90.5t76 -34.5q40 0 74 22.5t74 63.5zM199 -8q-68 0 -104 47t-36 121v133q0 116 73.5 185t191.5 69h133v-547h-47v121l-35 -35q-30 -30 -48 -45.5t-54 -32 t-74 -16.5z"/>
<glyph glyph-name="aacute" horiz-adv-x="551" unicode="á" d="M203 625v16l98 140h62v-15l-136 -141h-24zM355 121l55 55v328h-90q-99 0 -157 -55.5t-58 -151.5v-137q0 -56 26 -90.5t76 -34.5q40 0 74 22.5t74 63.5zM199 -8q-68 0 -104 47t-36 121v133q0 116 73.5 185t191.5 69h133v-547h-47v121l-35 -35q-30 -30 -48 -45.5t-54 -32 t-74 -16.5z"/>
<glyph glyph-name="acircumflex" horiz-adv-x="551" unicode="â" d="M127 625v16l125 140h62l125 -142v-14h-31l-125 129l-125 -129h-31zM355 121l55 55v328h-90q-99 0 -157 -55.5t-58 -151.5v-137q0 -56 26 -90.5t76 -34.5q40 0 74 22.5t74 63.5zM199 -8q-68 0 -104 47t-36 121v133q0 116 73.5 185t191.5 69h133v-547h-47v121l-35 -35 q-30 -30 -48 -45.5t-54 -32t-74 -16.5z"/>
<glyph glyph-name="atilde" horiz-adv-x="551" unicode="ã" d="M111 625v39q46 78 98 78q30 0 81.5 -39t66.5 -39q18 0 36.5 14t28 27t25.5 37h8v-39q-46 -78 -98 -78q-27 0 -79.5 39t-68.5 39q-17 0 -34 -12.5t-27 -25t-25 -34.5q-3 -4 -4 -6h-8zM355 121l55 55v328h-90q-99 0 -157 -55.5t-58 -151.5v-137q0 -56 26 -90.5t76 -34.5 q40 0 74 22.5t74 63.5zM199 -8q-68 0 -104 47t-36 121v133q0 116 73.5 185t191.5 69h133v-547h-47v121l-35 -35q-30 -30 -48 -45.5t-54 -32t-74 -16.5z"/>
<glyph glyph-name="adieresis" horiz-adv-x="551" unicode="ä" d="M135 625v94h54v-94h-54zM377 625v94h55v-94h-55zM355 121l55 55v328h-90q-99 0 -157 -55.5t-58 -151.5v-137q0 -56 26 -90.5t76 -34.5q40 0 74 22.5t74 63.5zM199 -8q-68 0 -104 47t-36 121v133q0 116 73.5 185t191.5 69h133v-547h-47v121l-35 -35q-30 -30 -48 -45.5 t-54 -32t-74 -16.5z"/>
<glyph glyph-name="aring" horiz-adv-x="551" unicode="å" d="M283 648q40 0 61 21.5t21 57.5t-21 57t-61 21q-39 0 -60.5 -21.5t-21.5 -56.5q0 -36 21 -57.5t61 -21.5zM283 625q-53 0 -83 29.5t-30 72.5t30 72t83 29t83 -29t30 -72t-30 -72.5t-83 -29.5zM355 121l55 55v328h-90q-99 0 -157 -55.5t-58 -151.5v-137q0 -56 26 -90.5 t76 -34.5q40 0 74 22.5t74 63.5zM199 -8q-68 0 -104 47t-36 121v133q0 116 73.5 185t191.5 69h133v-547h-47v121l-35 -35q-30 -30 -48 -45.5t-54 -32t-74 -16.5z"/>
<glyph glyph-name="ae" horiz-adv-x="844" unicode="æ" d="M457 336v-43h180q58 0 87.5 24t29.5 78q0 53 -37 81t-96 28q-78 0 -121 -44.5t-43 -123.5zM355 121l55 55v160q0 110 74 168h-164q-99 0 -157 -55.5t-58 -151.5v-137q0 -56 26 -90.5t76 -34.5q40 0 74 22.5t74 63.5zM613 -8q-78 0 -128 35.5t-67 100.5l-43 -42 q-30 -30 -48 -45.5t-54 -32t-74 -16.5q-68 0 -104 47t-36 121v133q0 116 73.5 185t191.5 69h297q80 0 130 -39.5t50 -112.5q0 -71 -46 -108t-122 -37h-176v-55q0 -76 40.5 -118t115.5 -42q69 0 149 39h8v-39q-67 -43 -157 -43z"/>
<glyph glyph-name="ccedilla" horiz-adv-x="469" unicode="ç" d="M127 -188v40h109q55 0 55 50q0 17 -15.5 35t-35.5 28v12h24q26 -12 44 -35.5t18 -46.5q0 -38 -26 -60.5t-68 -22.5h-105zM262 -8q-97 0 -150 53t-53 150v149q0 97 57 154t154 57q95 0 148 -35v-114h-47v86q-45 20 -101 20q-79 0 -122 -44.5t-43 -123.5v-149 q0 -76 40.5 -118t116.5 -42q37 0 80 12t68 27h8v-39q-23 -17 -69.5 -30t-86.5 -13z"/>
<glyph glyph-name="egrave" horiz-adv-x="500" unicode="è" d="M311 625l-137 141v15h62l98 -140v-16h-23zM105 344v-43h180q117 0 117 101q0 54 -36.5 82t-95.5 28q-79 0 -122 -44.5t-43 -123.5zM262 -8q-97 0 -150 53t-53 150v149q0 96 58.5 153.5t152.5 57.5q79 0 129 -39.5t50 -113.5q0 -70 -46 -107t-122 -37h-176v-63 q0 -76 40.5 -118t116.5 -42q68 0 148 39h8v-39q-65 -43 -156 -43z"/>
<glyph glyph-name="eacute" horiz-adv-x="500" unicode="é" d="M174 625v16l97 140h63v-15l-137 -141h-23zM105 344v-43h180q117 0 117 101q0 54 -36.5 82t-95.5 28q-79 0 -122 -44.5t-43 -123.5zM262 -8q-97 0 -150 53t-53 150v149q0 96 58.5 153.5t152.5 57.5q79 0 129 -39.5t50 -113.5q0 -70 -46 -107t-122 -37h-176v-63 q0 -76 40.5 -118t116.5 -42q68 0 148 39h8v-39q-65 -43 -156 -43z"/>
<glyph glyph-name="ecircumflex" horiz-adv-x="500" unicode="ê" d="M98 625v16l125 140h62l125 -142v-14h-31l-125 129l-125 -129h-31zM105 344v-43h180q117 0 117 101q0 54 -36.5 82t-95.5 28q-79 0 -122 -44.5t-43 -123.5zM262 -8q-97 0 -150 53t-53 150v149q0 96 58.5 153.5t152.5 57.5q79 0 129 -39.5t50 -113.5q0 -70 -46 -107 t-122 -37h-176v-63q0 -76 40.5 -118t116.5 -42q68 0 148 39h8v-39q-65 -43 -156 -43z"/>
<glyph glyph-name="edieresis" horiz-adv-x="500" unicode="ë" d="M105 625v94h55v-94h-55zM348 625v94h54v-94h-54zM105 344v-43h180q117 0 117 101q0 54 -36.5 82t-95.5 28q-79 0 -122 -44.5t-43 -123.5zM262 -8q-97 0 -150 53t-53 150v149q0 96 58.5 153.5t152.5 57.5q79 0 129 -39.5t50 -113.5q0 -70 -46 -107t-122 -37h-176v-63 q0 -76 40.5 -118t116.5 -42q68 0 148 39h8v-39q-65 -43 -156 -43z"/>
<glyph glyph-name="igrave" horiz-adv-x="258" unicode="ì" d="M178 625l-137 141v15h63l97 -140v-16h-23zM117 0v504h-101v43h148v-547h-47z"/>
<glyph glyph-name="iacute" horiz-adv-x="258" unicode="í" d="M49 625v16l97 140h63v-15l-137 -141h-23zM117 0v504h-101v43h148v-547h-47z"/>
<glyph glyph-name="icircumflex" horiz-adv-x="258" unicode="î" d="M-39 625v16l125 140h62l125 -142v-14h-31l-125 129l-125 -129h-31zM117 0v504h-101v43h148v-547h-47z"/>
<glyph glyph-name="idieresis" horiz-adv-x="258" unicode="ï" d="M-31 625v94h54v-94h-54zM211 625v94h55v-94h-55zM117 0v504h-101v43h148v-547h-47z"/>
<glyph glyph-name="eth" horiz-adv-x="551" unicode="ð" d="M355 121l55 55v328h-90q-99 0 -157 -55.5t-58 -151.5v-137q0 -56 26 -90.5t76 -34.5q40 0 74 22.5t74 63.5zM523 660h-66v-660h-47v121l-35 -35q-30 -30 -48 -45.5t-54 -32t-74 -16.5q-68 0 -104 47t-36 121v133q0 116 73.5 185t191.5 69h86v113h-125v35h125v55h47v-55 h66v-35z"/>
<glyph glyph-name="ntilde" horiz-adv-x="578" unicode="ñ" d="M117 625v39q46 78 98 78q30 0 81.5 -39t66.5 -39q18 0 36.5 14t28 27t25.5 37h8v-39q-46 -78 -98 -78q-27 0 -80 39t-68 39q-18 0 -36.5 -14t-28 -27t-25.5 -37h-8zM94 0v547h47v-121l39 39q90 90 164 90q140 0 140 -164v-391h-47v391q0 121 -97 121q-27 0 -60 -19 t-51 -35.5t-49 -47.5l-39 -39v-371h-47z"/>
<glyph glyph-name="ograve" horiz-adv-x="555" unicode="ò" d="M334 625l-137 141v15h63l97 -140v-16h-23zM277 35q93 0 134.5 66.5t41.5 175.5q0 235 -176 235q-175 0 -175 -235q0 -109 41 -175.5t134 -66.5zM277 -8q-114 0 -168 78t-54 207q0 127 55 202.5t167 75.5q115 0 169 -74.5t54 -203.5q0 -130 -53.5 -207.5t-169.5 -77.5z "/>
<glyph glyph-name="oacute" horiz-adv-x="555" unicode="ó" d="M197 625v16l98 140h62v-15l-136 -141h-24zM277 35q93 0 134.5 66.5t41.5 175.5q0 235 -176 235q-175 0 -175 -235q0 -109 41 -175.5t134 -66.5zM277 -8q-114 0 -168 78t-54 207q0 127 55 202.5t167 75.5q115 0 169 -74.5t54 -203.5q0 -130 -53.5 -207.5t-169.5 -77.5z "/>
<glyph glyph-name="ocircumflex" horiz-adv-x="555" unicode="ô" d="M121 625v16l125 140h63l125 -142v-14h-32l-125 129l-125 -129h-31zM277 35q93 0 134.5 66.5t41.5 175.5q0 235 -176 235q-175 0 -175 -235q0 -109 41 -175.5t134 -66.5zM277 -8q-114 0 -168 78t-54 207q0 127 55 202.5t167 75.5q115 0 169 -74.5t54 -203.5 q0 -130 -53.5 -207.5t-169.5 -77.5z"/>
<glyph glyph-name="otilde" horiz-adv-x="555" unicode="õ" d="M105 625v39q46 78 98 78q30 0 81.5 -39t67.5 -39q18 0 36.5 14t27 26t25.5 38h8v-39q-43 -78 -97 -78q-28 0 -81 39t-68 39q-17 0 -34 -12.5t-27 -25t-25 -34.5q-3 -4 -4 -6h-8zM277 35q93 0 134.5 66.5t41.5 175.5q0 235 -176 235q-175 0 -175 -235q0 -109 41 -175.5 t134 -66.5zM277 -8q-114 0 -168 78t-54 207q0 127 55 202.5t167 75.5q115 0 169 -74.5t54 -203.5q0 -130 -53.5 -207.5t-169.5 -77.5z"/>
<glyph glyph-name="odieresis" horiz-adv-x="555" unicode="ö" d="M129 625v94h55v-94h-55zM371 625v94h55v-94h-55zM277 35q93 0 134.5 66.5t41.5 175.5q0 235 -176 235q-175 0 -175 -235q0 -109 41 -175.5t134 -66.5zM277 -8q-114 0 -168 78t-54 207q0 127 55 202.5t167 75.5q115 0 169 -74.5t54 -203.5q0 -130 -53.5 -207.5 t-169.5 -77.5z"/>
<glyph glyph-name="divide" d="M293 207v39h39v-39h-39zM94 348v39h437v-39h-437zM293 488v39h39v-39h-39z" unicode="÷"/>
<glyph glyph-name="oslash" horiz-adv-x="555" unicode="ø" d="M277 35q93 0 134.5 66.5t41.5 175.5q0 97 -31 155l-265 -349q43 -48 120 -48zM102 277q0 -101 32 -161l265 349q-45 47 -122 47q-175 0 -175 -235zM55 0v12l49 65q-49 74 -49 200q0 127 55 202.5t167 75.5q94 0 150 -54l34 46h39v-12l-48 -63q48 -71 48 -195 q0 -130 -53.5 -207.5t-169.5 -77.5q-92 0 -148 54l-35 -46h-39z"/>
<glyph glyph-name="ugrave" horiz-adv-x="574" unicode="ù" d="M344 625l-137 141v15h63l97 -140v-16h-23zM230 -8q-140 0 -140 164v391h47v-391q0 -121 97 -121q27 0 60 19t52 36t49 47l39 39v371h46v-547h-46v121l-39 -39q-25 -24 -40.5 -37.5t-53 -33t-71.5 -19.5z"/>
<glyph glyph-name="uacute" horiz-adv-x="574" unicode="ú" d="M207 625v16l98 140h62v-15l-137 -141h-23zM230 -8q-140 0 -140 164v391h47v-391q0 -121 97 -121q27 0 60 19t52 36t49 47l39 39v371h46v-547h-46v121l-39 -39q-25 -24 -40.5 -37.5t-53 -33t-71.5 -19.5z"/>
<glyph glyph-name="ucircumflex" horiz-adv-x="574" unicode="û" d="M131 625v16l125 140h62l125 -142v-14h-31l-125 129l-125 -129h-31zM230 -8q-140 0 -140 164v391h47v-391q0 -121 97 -121q27 0 60 19t52 36t49 47l39 39v371h46v-547h-46v121l-39 -39q-25 -24 -40.5 -37.5t-53 -33t-71.5 -19.5z"/>
<glyph glyph-name="udieresis" horiz-adv-x="574" unicode="ü" d="M139 625v94h54v-94h-54zM381 625v94h55v-94h-55zM230 -8q-140 0 -140 164v391h47v-391q0 -121 97 -121q27 0 60 19t52 36t49 47l39 39v371h46v-547h-46v121l-39 -39q-25 -24 -40.5 -37.5t-53 -33t-71.5 -19.5z"/>
<glyph glyph-name="yacute" horiz-adv-x="574" unicode="ý" d="M207 625v16l98 140h62v-15l-137 -141h-23zM137 -188v43h101q108 0 152 54t44 169v47l-12 -8q-30 -20 -77 -37t-91 -17q-80 0 -122 47.5t-42 131.5v305h47v-305q0 -69 29.5 -103t95.5 -34q39 0 84.5 17.5t75.5 37.5l12 8v379h46v-461q0 -137 -57 -205.5t-185 -68.5h-101z "/>
<glyph glyph-name="thorn" horiz-adv-x="551" unicode="þ" d="M195 426l-54 -55v-328h89q100 0 157.5 55t57.5 152v137q0 56 -25.5 90.5t-75.5 34.5q-40 0 -74 -22.5t-75 -63.5zM94 -188v938h47v-324l35 35q30 30 48 45.5t54 32t74 16.5q67 0 103.5 -47.5t36.5 -120.5v-133q0 -116 -73.5 -185t-191.5 -69h-86v-188h-47z"/>
<glyph glyph-name="OE" horiz-adv-x="961" unicode="Œ" d="M105 359q0 -312 239 -312h156v656h-156q-239 0 -239 -312v-32zM898 0h-554q-148 0 -218.5 97t-70.5 262v32q0 165 70.5 262t218.5 97h554v-47h-347v-281h316v-47h-316v-328h347v-47z"/>
<glyph glyph-name="oe" horiz-adv-x="887" unicode="œ" d="M500 344v-43h180q117 0 117 101q0 54 -37 82t-96 28q-78 0 -121 -44.5t-43 -123.5zM277 35q91 0 132.5 63.5t43.5 168.5v20q-4 225 -176 225q-175 0 -175 -235q0 -109 41 -175.5t134 -66.5zM656 -8q-148 0 -190 117q-50 -117 -189 -117q-114 0 -168 78t-54 207 q0 127 55 202.5t167 75.5q142 0 192 -121q23 57 74.5 89t120.5 32q80 0 130 -39.5t50 -113.5q0 -70 -46 -107t-122 -37h-176v-63q0 -76 40.5 -118t115.5 -42q69 0 149 39h8v-39q-67 -43 -157 -43z"/>
<glyph glyph-name="Scaron" horiz-adv-x="551" unicode="Š" d="M123 984h31l125 -129l125 129h32v-13l-125 -143h-63l-125 141v15zM238 -8q-99 0 -187 31v51h8q31 -12 87 -23.5t92 -11.5h35q78 0 125 42.5t47 117.5q0 116 -109 149l-109 31q-83 23 -123.5 64.5t-40.5 119.5q0 95 64.5 145t169.5 50h12q93 0 168 -28v-46h-8 q-86 27 -160 27h-16q-83 0 -131.5 -36.5t-48.5 -111.5q0 -101 106 -129l109 -32q82 -23 125 -70t43 -133q0 -98 -62.5 -152.5t-163.5 -54.5h-32z"/>
<glyph glyph-name="scaron" horiz-adv-x="484" unicode="š" d="M90 781h31l125 -129l125 129h31v-13l-125 -143h-62l-125 141v15zM223 -8q-89 0 -153 20v47h8q64 -24 145 -24q69 0 110.5 30t41.5 91q0 41 -21 62.5t-73 35.5l-78 19q-68 18 -100.5 45.5t-32.5 91.5q0 72 58 108.5t142 36.5q67 0 128 -16v-43h-7q-64 16 -121 16 q-67 0 -110 -24t-43 -78q0 -39 20.5 -59t65.5 -31l78 -19q65 -17 103 -48t38 -97q0 -79 -55.5 -121.5t-143.5 -42.5z"/>
<glyph glyph-name="Ydieresis" horiz-adv-x="562" unicode="Ÿ" d="M133 828v94h54v-94h-54zM375 828v94h55v-94h-55zM258 0v309l-235 433v8h51l211 -387l207 387h51v-8l-234 -433v-309h-51z"/>
<glyph glyph-name="circumflex" horiz-adv-x="312" unicode="ˆ" d="M0 625v16l125 140h62l125 -142v-14h-31l-125 129l-125 -129h-31z"/>
<glyph glyph-name="tilde" horiz-adv-x="344" unicode="˜" d="M0 625v39q46 78 98 78q29 0 81 -39t67 -39q17 0 34 12.5t27 25t25 34.5q3 4 4 6h8v-39q-46 -78 -98 -78q-28 0 -80 39t-68 39q-18 0 -36.5 -14t-28 -27t-25.5 -37h-8z"/>
<glyph glyph-name="pi" horiz-adv-x="578" unicode="π" d="M94 0v547h390v-547h-47v504h-296v-504h-47z"/>
<glyph glyph-name="endash" horiz-adv-x="500" unicode="–" d="M31 348v39h438v-39h-438z"/>
<glyph glyph-name="emdash" horiz-adv-x="1000" unicode="—" d="M31 348v39h938v-39h-938z"/>
<glyph glyph-name="quoteleft" horiz-adv-x="219" unicode="‘" d="M191 750l-58 -219h-55v47l82 172h31z"/>
<glyph glyph-name="quotesinglbase" horiz-adv-x="273" unicode="‚" d="M51 -125l58 219h55v-47l-82 -172h-31z"/>
<glyph glyph-name="quotedblleft" horiz-adv-x="375" unicode="“" d="M348 750l-59 -219h-55v47l82 172h32zM191 750l-58 -219h-55v47l82 172h31z"/>
<glyph glyph-name="quotedblright" horiz-adv-x="375" unicode="”" d="M27 531l59 219h55v-47l-82 -172h-32zM184 531l58 219h55v-47l-82 -172h-31z"/>
<glyph glyph-name="dagger" horiz-adv-x="477" unicode="†" d="M215 -125v629h-153v43h153v203h47v-203h152v-43h-152v-629h-47z"/>
<glyph glyph-name="daggerdbl" horiz-adv-x="477" unicode="‡" d="M262 78v-203h-47v203h-152v43h152v383h-152v43h152v203h47v-203h152v-43h-152v-383h152v-43h-152z"/>
<glyph glyph-name="ellipsis" horiz-adv-x="832" unicode="…" d="M668 0v94h55v-94h-55zM387 0v94h54v-94h-54zM109 0v94h55v-94h-55z"/>
<glyph glyph-name="perthousand" horiz-adv-x="1320" unicode="‰" d="M266 0v12l375 738h31v-12l-375 -738h-31zM243 360q58 0 87.5 42t29.5 135t-29.5 135t-87.5 42q-59 0 -89 -42t-30 -135q0 -177 119 -177zM695 36q59 0 88 41.5t29 135.5t-29 135.5t-88 41.5t-89 -42t-30 -135q0 -177 119 -177zM1103 36q58 0 87.5 42t29.5 135t-29.5 135 t-87.5 42q-60 0 -90 -42t-30 -135q0 -177 120 -177zM1103 -4q-167 0 -167 217q0 218 167 218q81 0 123.5 -56t42.5 -162q0 -217 -166 -217zM695 -4q-167 0 -167 217q0 218 167 218q82 0 124 -56t42 -162q0 -217 -166 -217zM243 320q-167 0 -167 217q0 218 167 218 q166 0 166 -218q0 -217 -166 -217z"/>
<glyph glyph-name="guilsinglleft" horiz-adv-x="336" unicode="‹" d="M273 152l-211 160v47l211 161h8v-43l-172 -141l172 -141v-43h-8z"/>
<glyph glyph-name="guilsinglright" horiz-adv-x="336" unicode="›" d="M62 520l211 -161v-47l-211 -160h-7v43l172 141l-172 141v43h7z"/>
<glyph glyph-name="Euro" d="M148 437h-117v47h117v16q0 118 67.5 188t175.5 70h23q39 0 82.5 -9.5t65.5 -21.5v-43h-7q-63 27 -141 27h-23q-88 0 -140 -51t-52 -160v-16h270v-47h-270v-121h270v-46h-270v-20q0 -109 48 -160t144 -51h31q63 0 133 31h7v-43q-76 -35 -140 -35h-31q-112 0 -177.5 63 t-65.5 195v20h-117v46h117v121z" unicode="€"/>
<glyph glyph-name="trademark" horiz-adv-x="703" unicode="™" d="M129 355v352h-98v43h246v-43h-97v-352h-51zM336 355v395h27l125 -187l121 187h24v-395h-51v270l-86 -133h-19l-90 133v-270h-51z"/>
<glyph glyph-name="partialdiff" d="M312 39q168 0 168 188v124q-90 63 -179 63q-168 0 -168 -180q0 -102 48.5 -148.5t130.5 -46.5zM312 -8q-78 0 -131.5 36t-76 89t-22.5 117q0 111 56.5 169t162.5 58q88 0 179 -64v56q0 121 -61 185.5t-177 64.5h-117v47h109q75 0 133.5 -23.5t93 -63t52.5 -88t18 -102.5 v-243q0 -238 -219 -238z" unicode="∂"/>
<glyph glyph-name="product" horiz-adv-x="687" unicode="∏" d="M94 0v750h500v-750h-51v703h-398v-703h-51z"/>
<glyph glyph-name="summation" horiz-adv-x="559" unicode="∑" d="M62 47l204 328l-204 328v47h430v-47h-367l199 -316v-24l-199 -316h367v-47h-430v47z"/>
<glyph glyph-name="minus" d="M94 348v39h437v-39h-437z" unicode="−"/>
<glyph glyph-name="radical" d="M219 0l-199 539v8h39l183 -496l246 668h137v-39h-113l-254 -680h-39z" unicode="√"/>
<glyph glyph-name="infinity" horiz-adv-x="598" unicode="∞" d="M133 234q56 0 137 106l-36 43q-58 70 -101 70q-70 0 -70 -109q0 -52 20 -81t50 -29zM461 234q70 0 70 110q0 109 -70 109q-26 0 -67.5 -31.5t-77.5 -73.5l39 -47q57 -67 106 -67zM133 188q-60 0 -88.5 45t-28.5 111t28.5 111t88.5 45q35 0 61.5 -17.5t67.5 -68.5l31 -39 q40 51 86 88t82 37q60 0 88.5 -44t28.5 -112q0 -66 -28.5 -111t-88.5 -45q-36 0 -66.5 18.5t-66.5 63.5l-35 43q-93 -125 -160 -125z"/>
<glyph glyph-name="approxequal" d="M94 172v35q16 29 47 49.5t70 20.5q37 0 109 -33t98 -33q39 0 63 16t42 50h8v-35q-16 -29 -47 -49.5t-70 -20.5q-37 0 -109 33t-98 33q-64 0 -105 -66h-8zM94 391v35q16 29 47 49.5t70 20.5q37 0 109 -33t98 -33q39 0 63 16t42 50h8v-35q-16 -29 -47 -49.5t-70 -20.5 q-37 0 -109 33t-98 33q-64 0 -105 -66h-8z" unicode="≈"/>
<glyph glyph-name="notequal" d="M203 94v11l46 133h-155v39h168l61 180h-229v39h243l50 145h35v-12l-46 -133h155v-39h-169l-61 -180h230v-39h-244l-49 -144h-35z" unicode="≠"/>
<glyph glyph-name="lessequal" d="M94 -39v39h437v-39h-437zM523 125l-429 223v39l429 222h8v-43l-383 -199l383 -199v-43h-8z" unicode="≤"/>
<glyph glyph-name="greaterequal" d="M94 -39v39h437v-39h-437zM94 125v43l383 199l-383 199v43h8l429 -222v-39l-429 -223h-8z" unicode="≥"/>
<glyph glyph-name="lozenge" horiz-adv-x="703" unicode="◊" d="M352 82l253 293l-253 293l-254 -293zM352 0l-321 375l321 375l320 -375z"/>
</font>
</defs>
</svg>
